<?xml version="1.0" encoding="utf-8"?>
<!-- Generator: Adobe Illustrator 17.0.0, SVG Export Plug-In . SVG Version: 6.00 Build 0)  -->
<!DOCTYPE svg PUBLIC "-//W3C//DTD SVG 1.1//EN" "http://www.w3.org/Graphics/SVG/1.1/DTD/svg11.dtd">
<svg version="1.1" id="Capa_2" xmlns="http://www.w3.org/2000/svg" xmlns:xlink="http://www.w3.org/1999/xlink" x="0px" y="0px"
	 width="841.89px" height="595.28px" viewBox="0 0 841.89 595.28" enable-background="new 0 0 841.89 595.28" xml:space="preserve">
<g>
	<polygon fill="#004987" points="388.117,302.388 388.117,303.657 390.629,303.657 390.629,302.388 390.629,301.964 
		388.117,301.964 	"/>
	<rect x="388.117" y="296.883" fill="#004987" width="2.511" height="1.693"/>
	<polygon fill="#004987" points="399.417,282.899 397.407,282.899 398.412,287.476 399.417,287.986 400.421,287.476 
		401.424,282.899 	"/>
	<rect x="408.206" y="307.473" fill="#004987" width="3.765" height="1.693"/>
	<rect x="408.206" y="301.964" fill="#004987" width="3.765" height="1.693"/>
	<rect x="408.206" y="296.883" fill="#004987" width="3.765" height="1.693"/>
	<polygon fill="#004987" points="420.758,282.899 418.751,282.899 419.754,287.476 420.758,287.986 421.765,287.476 
		422.767,282.899 	"/>
	<rect x="429.546" y="307.473" fill="#004987" width="3.766" height="1.693"/>
	<rect x="429.546" y="301.964" fill="#004987" width="3.766" height="1.693"/>
	<rect x="429.546" y="296.883" fill="#004987" width="3.766" height="1.693"/>
	<polygon fill="#004987" points="442.101,282.899 440.092,282.899 441.097,287.476 442.101,287.986 443.106,287.476 
		444.111,282.899 	"/>
	<polygon fill="#004987" points="450.889,302.388 450.889,303.657 453.401,303.657 453.401,302.388 453.401,301.964 
		450.889,301.964 	"/>
	<rect x="450.889" y="296.883" fill="#004987" width="2.511" height="1.693"/>
	<rect x="474.741" y="262.989" fill="#004987" width="5.441" height="0.849"/>
	<rect x="474.741" y="268.495" fill="#004987" width="5.441" height="0.849"/>
	<rect x="474.741" y="257.482" fill="#004987" width="5.441" height="0.849"/>
	<rect x="474.741" y="251.974" fill="#004987" width="5.441" height="0.852"/>
	<rect x="474.741" y="246.468" fill="#004987" width="5.441" height="0.846"/>
	<rect x="474.741" y="240.959" fill="#004987" width="5.441" height="0.844"/>
	<rect x="464.281" y="246.468" fill="#004987" width="8.368" height="22.876"/>
	<rect x="456.748" y="262.989" fill="#004987" width="5.439" height="0.849"/>
	<rect x="456.748" y="268.495" fill="#004987" width="5.439" height="0.849"/>
	<rect x="456.748" y="257.482" fill="#004987" width="5.439" height="0.849"/>
	<rect x="456.748" y="251.974" fill="#004987" width="5.439" height="0.852"/>
	<rect x="456.748" y="246.468" fill="#004987" width="5.439" height="0.846"/>
	<rect x="456.748" y="240.959" fill="#004987" width="5.439" height="0.844"/>
	<rect x="435.405" y="272.31" fill="#004987" width="13.39" height="2.542"/>
	<rect x="437.917" y="249.01" fill="#004987" width="8.371" height="22.03"/>
	<polygon fill="#004987" points="414.063,272.31 414.063,274.852 427.453,274.852 427.453,272.31 420.759,272.31 	"/>
	<polygon fill="#004987" points="424.944,271.041 424.944,249.011 420.758,249.011 416.575,249.011 416.575,271.041 
		420.758,271.041 	"/>
	<rect x="392.722" y="272.31" fill="#004987" width="13.39" height="2.542"/>
	<rect x="395.233" y="249.01" fill="#004987" width="8.368" height="22.03"/>
	<rect x="379.331" y="262.989" fill="#004987" width="5.441" height="0.849"/>
	<rect x="379.331" y="268.495" fill="#004987" width="5.441" height="0.849"/>
	<rect x="379.331" y="257.482" fill="#004987" width="5.441" height="0.849"/>
	<rect x="379.331" y="251.974" fill="#004987" width="5.441" height="0.852"/>
	<rect x="379.331" y="246.468" fill="#004987" width="5.441" height="0.846"/>
	<rect x="379.331" y="240.959" fill="#004987" width="5.441" height="0.844"/>
	<rect x="368.867" y="246.468" fill="#004987" width="8.369" height="22.876"/>
	<rect x="361.337" y="257.482" fill="#004987" width="5.441" height="0.849"/>
	<rect x="361.337" y="262.989" fill="#004987" width="5.441" height="0.849"/>
	<rect x="361.337" y="251.974" fill="#004987" width="5.441" height="0.852"/>
	<rect x="361.337" y="246.468" fill="#004987" width="5.441" height="0.846"/>
	<rect x="361.337" y="240.959" fill="#004987" width="5.441" height="0.844"/>
	<rect x="361.337" y="268.495" fill="#004987" width="5.441" height="0.849"/>
	<path fill="#004987" d="M399.208,199.864c2.54,0,4.603-2.085,4.603-4.657c0-2.575-2.063-4.66-4.603-4.66
		c-2.543,0-4.603,2.085-4.603,4.66C394.605,197.779,396.665,199.864,399.208,199.864"/>
	<path fill="#004987" d="M420.758,199.864c2.543,0,4.603-2.085,4.603-4.657c0-2.575-2.06-4.66-4.603-4.66
		c-2.543,0-4.603,2.085-4.603,4.66C416.155,197.779,418.215,199.864,420.758,199.864"/>
	<path fill="#004987" d="M442.31,199.864c2.542,0,4.603-2.085,4.603-4.657c0-2.575-2.061-4.66-4.603-4.66
		c-2.543,0-4.603,2.085-4.603,4.66C437.707,197.779,439.767,199.864,442.31,199.864"/>
	<path fill="#004987" d="M387.7,218.509h-0.25c-3.455-4.149-8.622-6.78-14.397-6.78c-5.777,0-10.944,2.631-14.399,6.78h-0.248v1.693
		H387.7V218.509z"/>
	<polygon fill="#004987" points="453.4,208.298 453.4,205.797 420.757,205.797 388.117,205.797 388.117,208.298 420.757,208.298 	
		"/>
	<polygon fill="#004987" points="392.722,215.542 420.758,215.542 448.796,215.542 448.796,213.422 453.401,213.422 
		453.401,211.304 388.118,211.304 388.118,213.422 392.722,213.422 	"/>
	<rect x="392.722" y="218.509" fill="#004987" width="56.074" height="1.693"/>
	<polygon fill="#004987" points="456.748,223.589 384.772,223.589 384.772,221.471 361.336,221.471 361.336,223.589 
		361.336,225.282 361.336,226.555 388.117,226.555 388.117,229.522 453.4,229.522 453.4,226.555 480.182,226.555 480.182,225.282 
		480.182,223.589 480.182,221.471 456.748,221.471 	"/>
	<path fill="#004987" d="M361.337,234.182h6.694v3.811h0.945c0.91,1.282,2.397,2.118,4.076,2.118c1.68,0,3.167-0.836,4.076-2.118
		h0.946v-3.811h6.696v-3.388h-23.434V234.182z"/>
	<path fill="#004987" d="M456.748,234.182h6.696v3.811h0.945c0.911,1.282,2.397,2.118,4.076,2.118c1.68,0,3.165-0.836,4.078-2.118
		h0.945v-3.811h6.694v-3.388h-23.434V234.182z"/>
	<path fill="#004987" d="M399.416,237.038c1.678,0,3.036,1.376,3.036,3.073c0,1.701-1.358,3.074-3.036,3.074
		c-1.676,0-3.036-1.373-3.036-3.074C396.38,238.415,397.74,237.038,399.416,237.038 M388.117,237.148h8.312
		c-0.243,0.254-0.458,0.534-0.636,0.846h-3.071v4.662h3.346c0.763,1.026,1.979,1.695,3.35,1.695c1.369,0,2.583-0.668,3.346-1.695
		h3.348v-4.662h-3.071c-0.177-0.312-0.391-0.592-0.636-0.846h12.333c1.088-2.259,3.375-3.814,6.022-3.814h-32.642V237.148z"/>
	<path fill="#004987" d="M442.101,237.038c1.676,0,3.035,1.376,3.035,3.073c0,1.701-1.358,3.074-3.035,3.074
		c-1.676,0-3.036-1.373-3.036-3.074C439.065,238.415,440.425,237.038,442.101,237.038 M426.78,237.148h12.334
		c-0.247,0.254-0.46,0.534-0.636,0.846h-3.073v4.662h3.348c0.763,1.026,1.979,1.695,3.348,1.695c1.369,0,2.585-0.668,3.348-1.695
		h3.346v-4.662h-3.071c-0.177-0.312-0.39-0.592-0.636-0.846h8.312v-3.814h-32.642C423.407,233.334,425.694,234.89,426.78,237.148"/>
	<path fill="#004987" d="M412.39,237.994v4.663h2.161c-0.313-0.788-0.488-1.643-0.488-2.545c0-0.739,0.119-1.45,0.334-2.118H412.39z
		"/>
	<path fill="#004987" d="M427.453,240.111c0,0.902-0.175,1.757-0.488,2.545h2.165v-4.663h-2.01
		C427.335,238.661,427.453,239.373,427.453,240.111"/>
	<path fill="#004987" d="M424.944,240.111c0-1.169-0.468-2.229-1.223-2.993l-2.505,3.26c-0.013,0.021-0.025,0.04-0.041,0.064
		l-0.014,0.016c-0.01,0.006-0.016,0.021-0.025,0.03c-0.027,0.027-0.057,0.05-0.086,0.074c-0.205,0.131-0.48,0.11-0.66-0.07
		c-0.043-0.046-0.078-0.096-0.102-0.153l-1.369-2.094l1.824,1.223l2.979-2.348c-0.759-0.769-1.807-1.242-2.963-1.242
		c-2.309,0-4.183,1.896-4.183,4.235c0,2.342,1.874,4.24,4.183,4.24C423.072,244.351,424.944,242.453,424.944,240.111"/>
	<polygon fill="#004987" points="392.722,247.313 406.112,247.313 406.112,246.044 406.112,245.195 392.722,245.195 	"/>
	<path fill="#004987" d="M420.758,246.893c-1.695,0-3.248-0.641-4.426-1.696h-2.27v2.117h6.696h6.694v-2.117h-2.266
		C424.004,246.251,422.455,246.893,420.758,246.893"/>
	<rect x="435.405" y="245.194" fill="#004987" width="13.39" height="2.118"/>
	<path fill="#004987" d="M397.35,285.668l-0.363-1.656c-5.072,1.129-8.87,5.701-8.87,11.176h1.256h0.418h0.837h0.42h0.418
		c0-3.858,2.672-7.074,6.246-7.867l-0.18-0.828L397.35,285.668z"/>
	<path fill="#004987" d="M418.498,284.78l-0.169-0.769c-3.849,0.858-6.963,3.699-8.24,7.407c-1.279-3.707-4.395-6.548-8.243-7.407
		l-0.167,0.766l-0.558,2.545c3.572,0.791,6.247,4.01,6.247,7.867h0.42h0.418h0.835h0.42h1.256h0.417h0.837h0.421h0.417
		c0-3.858,2.674-7.076,6.247-7.867h0.003l-0.56-2.545L418.498,284.78z"/>
	<path fill="#004987" d="M439.672,284.012c-3.851,0.859-6.965,3.698-8.242,7.405c-1.277-3.707-4.393-6.547-8.242-7.405l-0.169,0.764
		l-0.557,2.547c3.572,0.791,6.247,4.008,6.247,7.866h0.418h0.418h0.837h0.418h1.255h0.42h0.837h0.418h0.418
		c0-3.858,2.675-7.074,6.247-7.866l-0.557-2.547L439.672,284.012z"/>
	<path fill="#004987" d="M444.529,284.012l-0.167,0.764l-0.558,2.547c3.572,0.791,6.249,4.008,6.249,7.866h0.417h0.42h0.837h0.418
		h1.256C453.401,289.714,449.603,285.14,444.529,284.012"/>
	<path fill="#004987" d="M407.787,305.564c-0.116,0-0.21,0.098-0.21,0.214s0.094,0.209,0.21,0.209c0.116,0,0.208-0.093,0.208-0.209
		S407.903,305.564,407.787,305.564"/>
	<path fill="#004987" d="M409.041,305.989c0-0.117-0.092-0.211-0.208-0.211c-0.115,0-0.212,0.094-0.212,0.211
		s0.097,0.214,0.212,0.214C408.948,306.203,409.041,306.105,409.041,305.989"/>
	<path fill="#004987" d="M410.296,305.143c0-0.117-0.092-0.214-0.208-0.214c-0.116,0-0.208,0.098-0.208,0.214
		c0,0.117,0.092,0.211,0.208,0.211C410.204,305.354,410.296,305.26,410.296,305.143"/>
	<g>
		<rect x="406.112" y="171.891" fill="#004987" width="2.944" height="2.98"/>
		<rect x="409.88" y="171.891" fill="#004987" width="2.942" height="2.98"/>
		<rect x="417.409" y="171.891" fill="#004987" width="2.946" height="2.98"/>
		<rect x="421.163" y="171.891" fill="#004987" width="2.944" height="2.98"/>
		<rect x="413.643" y="171.891" fill="#004987" width="2.944" height="2.98"/>
		<rect x="402.344" y="171.891" fill="#004987" width="2.944" height="2.98"/>
		<rect x="391.047" y="171.891" fill="#004987" width="2.944" height="2.98"/>
		<rect x="394.812" y="171.891" fill="#004987" width="2.944" height="2.98"/>
		<rect x="398.578" y="171.891" fill="#004987" width="2.944" height="2.98"/>
		<rect x="447.525" y="171.891" fill="#004987" width="2.946" height="2.98"/>
		<rect x="443.759" y="171.891" fill="#004987" width="2.944" height="2.98"/>
		<rect x="439.994" y="171.891" fill="#004987" width="2.944" height="2.98"/>
		<path fill="#004987" d="M512.508,222.424l-0.056-115.336H329.066v117.133c0,0.822,0.099,2.108,0.099,2.108
			c1.672,49.772,42.016,89.618,91.593,89.618c50.215,0,91.074-40.867,91.75-91.536v-1.368
			C512.483,222.387,512.508,223.042,512.508,222.424z M388.117,176.564l2.091-2.118v-6.777h0.838v3.391h29.71h29.713v-3.391h0.837
			v6.777l2.093,2.118v2.542h-65.283V176.564z M335.393,242.657h22.175v2.967H336.09
			C335.839,244.644,335.613,243.653,335.393,242.657z M482.693,285.441h-27.62h-0.027v2.547h25.448
			c-2.737,2.591-5.659,4.983-8.708,7.2h-0.067h-5.961h-10.712v2.557h10.712h2.169h0.15c-5.974,3.891-12.431,7.092-19.281,9.434
			v-0.094v-0.197v-11.699c0-3.747-2.995-6.78-6.694-6.78c-3.698,0-6.696,3.033-6.696,6.78v11.699v3.59v0.114
			c-2.613,0.445-5.264,0.782-7.951,0.99v-0.128v-2.468v-13.797c0-3.747-2.996-6.78-6.696-6.78c-3.698,0-6.694,3.033-6.694,6.78
			v13.797v2.468v0.128c-2.685-0.211-5.338-0.536-7.951-0.983v-0.12v-4.275v-11.015c0-3.747-2.998-6.78-6.696-6.78
			s-6.694,3.033-6.694,6.78v11.015v0.881v0.11c-6.865-2.352-13.33-5.559-19.312-9.463h0.126c0.008,0.003,0.016,0.01,0.024,0.013
			h12.885v-2.557h-10.289h-6.389h-0.036c-3.049-2.217-5.971-4.609-8.706-7.2h25.421v-2.122v-0.425h-27.619v-6.777h26.361h1.258
			h1.673v1.273h65.283v-1.273h1.672h27.62V285.441z M505.426,245.624h-21.478v-2.967h22.176
			C505.904,243.653,505.675,244.644,505.426,245.624z M507.756,232.486h-25.063v1.696h24.875c-0.119,0.996-0.251,1.984-0.405,2.967
			h-23.215h-1.255v4.655v0.852v0.842v2.125v1.269v24.148h1.255v-24.148h21.13c-0.39,1.429-0.816,2.839-1.272,4.235h-4.791v11.734
			c-1.042,2.109-2.152,4.176-3.349,6.184v-17.918h-7.531v19.913h6.286c-1.385,2.187-2.863,4.305-4.426,6.353h-7.3v-2.542h-27.62
			v0.921v0.352v0.421h-3.346h-63.19h-0.418h-1.673v-0.421v-0.742v-0.531h-27.619v2.542h-7.302c-1.565-2.048-3.043-4.166-4.43-6.353
			h6.29v-19.913h-7.532v17.921c-1.199-2.008-2.308-4.075-3.348-6.179v-11.742h-4.795c-0.456-1.396-0.881-2.806-1.271-4.235h21.13
			v24.148h1.258v-24.148v-1.269v-2.125v-0.842v-0.852v-4.655h-1.258h-23.215c-0.153-0.983-0.285-1.971-0.406-2.967h24.878v-1.696
			H333.76c-0.115-1.124-0.226-2.249-0.299-3.388h1.92h23.445v-7.626h-3.35v-3.813h2.244c1.061-1.269,2.276-2.408,3.617-3.383v-5.938
			h6.706c1.473,0.868,3.183,1.362,5.01,1.362c1.826,0,3.537-0.494,5.01-1.362h6.709h2.51v-2.542h-6.278v-1.274H365.1l0.002,1.274
			h-6.276v-4.237v-0.427h2.516c0.297-10.801,11.891-19.485,26.148-19.485c0.095,0,0.189,0.003,0.283,0.003
			c0.114-0.003,0.231-0.003,0.345-0.003h32.64h32.643c0.113,0,0.229,0,0.344,0.003c0.095,0,0.189-0.003,0.283-0.003
			c14.259,0,25.852,8.684,26.148,19.485h2.518v4.663h-6.279v-1.274h-15.9v1.274h-6.276v2.542h9.217
			c1.473,0.868,3.186,1.362,5.012,1.362c1.824,0,3.537-0.494,5.008-1.362h6.709v5.938c1.336,0.975,2.553,2.113,3.615,3.383h2.243
			v3.813h-3.348v7.626h23.561h1.8C507.983,230.236,507.87,231.362,507.756,232.486z"/>
		<rect x="436.226" y="171.891" fill="#004987" width="2.946" height="2.98"/>
		<rect x="424.928" y="171.891" fill="#004987" width="2.944" height="2.98"/>
		<rect x="428.695" y="171.891" fill="#004987" width="2.946" height="2.98"/>
		<rect x="432.462" y="171.891" fill="#004987" width="2.944" height="2.98"/>
	</g>
	<path fill="#004987" d="M483.111,219.354v-0.846h-0.25c-3.453-4.149-8.622-6.778-14.395-6.778c-5.777,0-10.946,2.63-14.399,6.778
		h-0.25v1.695h29.294V219.354z"/>
</g>
<path fill="#004987" d="M265.337,348.366v20.664c0,2.95,0.483,5.106,1.447,6.466c1.438,1.972,3.461,2.957,6.072,2.957
	c2.62,0,4.653-0.985,6.091-2.957c0.963-1.317,1.447-3.472,1.447-6.466v-20.664h5.18v22.106c0,3.616-1.127,6.596-3.38,8.939
	c-2.536,2.608-5.648,3.914-9.338,3.914c-3.695,0-6.798-1.305-9.317-3.914c-2.253-2.342-3.381-5.323-3.381-8.939v-22.106H265.337z"/>
<polygon fill="#004987" points="295.622,382.7 295.622,346.033 320.661,372.227 320.661,348.365 325.841,348.365 325.841,384.791 
	300.802,358.665 300.802,382.7 "/>
<rect x="335.892" y="348.365" fill="#004987" width="5.18" height="34.335"/>
<polygon fill="#004987" points="352.88,348.366 362.376,372.16 372.002,348.366 377.674,348.366 362.264,385.28 347.21,348.366 "/>
<polygon fill="#004987" points="402.709,353.237 388.944,353.237 388.944,361.485 402.311,361.485 402.311,366.357 388.944,366.357 
	388.944,377.83 402.709,377.83 402.709,382.7 383.764,382.7 383.764,348.365 402.709,348.365 "/>
<path fill="#004987" d="M416.515,364.133h1.649c4.905,0,7.361-1.874,7.361-5.628c0-3.513-2.388-5.269-7.16-5.269h-1.849V364.133z
	 M422.965,368.069l10.629,14.63h-6.337l-9.807-14.053h-0.935v14.053h-5.18v-34.333h6.072c4.535,0,7.81,0.854,9.826,2.558
	c2.223,1.898,3.336,4.404,3.336,7.516c0,2.432-0.697,4.523-2.09,6.271C427.086,366.461,425.247,367.58,422.965,368.069"/>
<path fill="#004987" d="M459.99,353.459l-4.203,2.491c-0.786-1.364-1.532-2.251-2.246-2.667c-0.741-0.477-1.697-0.712-2.868-0.712
	c-1.438,0-2.632,0.408-3.582,1.223c-0.948,0.803-1.421,1.81-1.421,3.028c0,1.676,1.243,3.026,3.737,4.05l3.423,1.401
	c2.785,1.128,4.825,2.504,6.115,4.129c1.29,1.623,1.933,3.617,1.933,5.975c0,3.159-1.052,5.771-3.157,7.834
	c-2.117,2.076-4.749,3.114-7.893,3.114c-2.981,0-5.441-0.886-7.384-2.659c-1.911-1.77-3.105-4.255-3.578-7.458l5.249-1.155
	c0.237,2.016,0.652,3.408,1.244,4.18c1.068,1.482,2.624,2.225,4.67,2.225c1.615,0,2.957-0.542,4.026-1.622
	c1.064-1.083,1.598-2.452,1.598-4.112c0-0.667-0.093-1.276-0.276-1.832c-0.185-0.556-0.473-1.068-0.869-1.536
	c-0.391-0.465-0.901-0.903-1.522-1.308c-0.621-0.408-1.366-0.797-2.223-1.167l-3.312-1.379c-4.7-1.984-7.052-4.887-7.052-8.708
	c0-2.58,0.987-4.734,2.96-6.466c1.97-1.75,4.424-2.624,7.361-2.624C454.675,347.7,457.767,349.619,459.99,353.459"/>
<rect x="468.95" y="348.365" fill="#004987" width="5.18" height="34.335"/>
<path fill="#004987" d="M489.383,377.83h2.336c2.326,0,4.262-0.244,5.801-0.733c1.543-0.519,2.937-1.342,4.181-2.469
	c2.551-2.327,3.824-5.36,3.824-9.093c0-3.767-1.26-6.82-3.779-9.164c-2.27-2.088-5.611-3.134-10.028-3.134h-2.336V377.83z
	 M484.203,382.7v-34.335h7.202c3.454,0,6.184,0.342,8.184,1.024c2.15,0.667,4.097,1.802,5.847,3.403
	c3.543,3.232,5.316,7.48,5.316,12.743c0,5.276-1.846,9.546-5.535,12.807c-1.856,1.632-3.796,2.767-5.828,3.403
	c-1.898,0.638-4.589,0.955-8.071,0.955H484.203z"/>
<path fill="#004987" d="M535.456,369.491l-5.091-11.672l-5.338,11.672H535.456z M537.568,374.362H522.87l-3.826,8.337h-5.581
	l16.99-36.49l16.39,36.49h-5.67L537.568,374.362z"/>
<path fill="#004987" d="M558.133,377.83h2.336c2.329,0,4.262-0.244,5.805-0.733c1.542-0.519,2.933-1.342,4.181-2.469
	c2.548-2.327,3.824-5.36,3.824-9.093c0-3.767-1.26-6.82-3.782-9.164c-2.267-2.088-5.611-3.134-10.028-3.134h-2.336V377.83z
	 M552.953,382.7v-34.335h7.206c3.454,0,6.18,0.342,8.184,1.024c2.147,0.667,4.097,1.802,5.847,3.403
	c3.543,3.232,5.316,7.48,5.316,12.743c0,5.276-1.849,9.546-5.539,12.807c-1.852,1.632-3.796,2.767-5.825,3.403
	c-1.898,0.638-4.589,0.955-8.071,0.955H552.953z"/>
<path fill="#004987" d="M232.897,429.444h2.336c2.326,0,4.262-0.244,5.801-0.734c1.543-0.519,2.937-1.34,4.181-2.467
	c2.551-2.329,3.824-5.36,3.824-9.095c0-3.765-1.26-6.82-3.779-9.163c-2.27-2.09-5.611-3.134-10.028-3.134h-2.336V429.444z
	 M227.717,434.314V399.98h7.202c3.454,0,6.184,0.342,8.184,1.024c2.15,0.667,4.097,1.802,5.847,3.402
	c3.543,3.232,5.316,7.48,5.316,12.743c0,5.276-1.846,9.548-5.537,12.808c-1.854,1.63-3.794,2.765-5.827,3.403
	c-1.898,0.637-4.589,0.955-8.071,0.955H227.717z"/>
<polygon fill="#004987" points="280.41,404.851 266.645,404.851 266.645,413.1 280.013,413.1 280.013,417.971 266.645,417.971 
	266.645,429.444 280.41,429.444 280.41,434.314 261.465,434.314 261.465,399.98 280.41,399.98 "/>
<polygon fill="#004987" points="307.818,399.98 307.818,429.445 317.911,429.445 317.911,434.315 302.638,434.315 302.638,399.98 
	"/>
<path fill="#004987" d="M343.477,421.105l-5.091-11.673l-5.335,11.673H343.477z M345.592,425.975h-14.699l-3.824,8.339h-5.582
	l16.988-36.492l16.39,36.492h-5.67L345.592,425.975z"/>
<path fill="#004987" d="M343.477,421.105l-5.091-11.673l-5.335,11.673H343.477z M345.592,425.975h-14.699l-3.824,8.339h-5.582
	l16.988-36.492l16.39,36.492h-5.67L345.592,425.975z"/>
<polygon fill="#004987" points="421.621,404.851 407.856,404.851 407.856,413.1 421.223,413.1 421.223,417.971 407.856,417.971 
	407.856,429.444 421.621,429.444 421.621,434.314 402.676,434.314 402.676,399.98 421.621,399.98 "/>
<path fill="#004987" d="M379.755,415.746h1.647c4.907,0,7.362-1.874,7.362-5.626c0-3.513-2.388-5.269-7.16-5.269h-1.849V415.746z
	 M386.205,419.683l10.629,14.63h-6.337l-9.807-14.053h-0.935v14.053h-5.18v-34.333h6.071c4.537,0,7.812,0.852,9.828,2.556
	c2.223,1.898,3.336,4.404,3.336,7.517c0,2.432-0.697,4.521-2.09,6.269C390.325,418.073,388.486,419.193,386.205,419.683"/>
<path fill="#004987" d="M474.955,390.752l-9.072,6.136l-2.47-2.066l7.14-7.16L474.955,390.752z M459.569,399.98v20.664
	c0,2.949,0.48,5.106,1.443,6.466c1.438,1.97,3.464,2.955,6.072,2.955c2.624,0,4.655-0.985,6.094-2.955
	c0.963-1.317,1.443-3.472,1.443-6.466V399.98h5.182v22.104c0,3.617-1.125,6.598-3.378,8.94c-2.536,2.607-5.651,3.914-9.341,3.914
	c-3.691,0-6.798-1.307-9.317-3.914c-2.253-2.342-3.378-5.323-3.378-8.94V399.98H459.569z"/>
<path fill="#004987" d="M493.896,429.444h3.2c2.346,0,4.063-0.46,5.161-1.379c1.157-0.994,1.733-2.253,1.733-3.779
	c0-1.484-0.556-2.728-1.667-3.737c-1.083-0.994-3.016-1.49-5.801-1.49h-2.625V429.444z M493.896,414.723h1.622
	c1.926,0,3.341-0.426,4.237-1.278c0.898-0.85,1.344-2.108,1.344-3.769c0-1.617-0.456-2.843-1.378-3.68
	c-0.918-0.839-2.253-1.256-4.003-1.256h-1.822V414.723z M488.716,434.314V399.98h5.158c2.299,0,4.127,0.178,5.491,0.534
	c1.378,0.357,2.543,0.957,3.493,1.802c0.962,0.876,1.728,1.964,2.29,3.269c0.578,1.32,0.867,2.656,0.867,4.003
	c0,2.46-0.943,4.543-2.824,6.249c1.822,0.621,3.258,1.711,4.314,3.269c1.066,1.543,1.598,3.334,1.598,5.38
	c0,2.684-0.946,4.953-2.844,6.805c-1.142,1.142-2.425,1.935-3.848,2.379c-1.556,0.429-3.506,0.645-5.848,0.645H488.716z"/>
<polygon fill="#004987" points="521.507,399.98 521.507,429.445 531.601,429.445 531.601,434.315 516.327,434.315 516.327,399.98 
	"/>
<rect x="537.203" y="399.98" fill="#004987" width="5.18" height="34.335"/>
<path fill="#004987" d="M576.687,401.816v6.126c-2.996-2.506-6.094-3.759-9.296-3.759c-3.528,0-6.502,1.266-8.915,3.802
	c-2.435,2.519-3.647,5.604-3.647,9.25c0,3.602,1.212,6.643,3.647,9.117c2.43,2.477,5.409,3.713,8.935,3.713
	c1.825,0,3.375-0.295,4.651-0.889c0.711-0.296,1.447-0.695,2.209-1.201c0.765-0.504,1.569-1.111,2.415-1.824v6.261
	c-2.967,1.682-6.078,2.524-9.341,2.524c-4.907,0-9.093-1.714-12.564-5.138c-3.454-3.454-5.18-7.618-5.18-12.497
	c0-4.373,1.443-8.272,4.335-11.697c3.56-4.195,8.164-6.293,13.81-6.293C570.83,399.313,573.809,400.148,576.687,401.816"/>
<path fill="#004987" d="M597.694,409.432l5.092,11.673h-10.427L597.694,409.432z M580.795,434.315h5.582l3.824-8.341h14.698
	l3.602,8.341h5.672l-16.39-36.492L580.795,434.315z"/>
<path fill="#004987" d="M434.289,415.568h1.937c4.757,0,7.138-1.829,7.138-5.491c0-3.545-2.454-5.315-7.361-5.315h-1.714V415.568z
	 M434.289,420.371v13.943h-5.18v-34.333h5.87c2.875,0,5.049,0.2,6.515,0.599c1.484,0.399,2.787,1.157,3.915,2.268
	c1.969,1.926,2.955,4.358,2.955,7.295c0,3.142-1.052,5.633-3.157,7.47c-2.105,1.839-4.942,2.757-8.514,2.757H434.289z"/>
<path fill="#004987" d="M310.044,451.593v20.664c0,2.949,0.48,5.106,1.443,6.466c1.438,1.97,3.464,2.955,6.072,2.955
	c2.624,0,4.655-0.985,6.094-2.955c0.963-1.317,1.443-3.472,1.443-6.466v-20.664h5.182v22.104c0,3.617-1.125,6.598-3.378,8.94
	c-2.536,2.607-5.651,3.914-9.341,3.914c-3.691,0-6.798-1.307-9.317-3.914c-2.253-2.342-3.378-5.323-3.378-8.94v-22.104H310.044z"/>
<path fill="#004987" d="M345.964,467.359h1.647c4.907,0,7.362-1.874,7.362-5.626c0-3.513-2.388-5.271-7.16-5.271h-1.849V467.359z
	 M352.413,471.296l10.629,14.63h-6.337l-9.807-14.053h-0.935v14.053h-5.18v-34.333h6.071c4.537,0,7.812,0.854,9.828,2.556
	c2.223,1.898,3.336,4.404,3.336,7.517c0,2.432-0.697,4.521-2.09,6.271C356.534,469.688,354.695,470.806,352.413,471.296"/>
<path fill="#004987" d="M375.15,451.593v20.664c0,2.949,0.48,5.106,1.443,6.466c1.438,1.97,3.464,2.955,6.072,2.955
	c2.625,0,4.655-0.985,6.094-2.955c0.963-1.317,1.443-3.472,1.443-6.466v-20.664h5.182v22.104c0,3.617-1.125,6.598-3.378,8.94
	c-2.536,2.607-5.651,3.914-9.341,3.914c-3.69,0-6.798-1.307-9.317-3.914c-2.253-2.342-3.378-5.323-3.378-8.94v-22.104H375.15z"/>
<path fill="#004987" d="M423.544,468.048h14.189v1.135c0,2.58-0.306,4.863-0.911,6.849c-0.596,1.839-1.596,3.558-3.003,5.16
	c-3.188,3.589-7.243,5.38-12.163,5.38c-4.804,0-8.92-1.734-12.344-5.203c-3.423-3.482-5.138-7.664-5.138-12.541
	c0-4.981,1.745-9.206,5.227-12.675c3.482-3.484,7.726-5.227,12.722-5.227c2.679,0,5.185,0.547,7.514,1.639
	c2.223,1.093,4.41,2.866,6.559,5.323l-3.691,3.535c-2.819-3.75-6.249-5.624-10.292-5.624c-3.636,0-6.68,1.253-9.141,3.757
	c-2.46,2.46-3.691,5.545-3.691,9.25c0,3.826,1.369,6.977,4.112,9.452c2.565,2.297,5.343,3.445,8.341,3.445
	c2.548,0,4.836-0.857,6.869-2.573c2.031-1.729,3.164-3.799,3.402-6.209h-8.561V468.048z"/>
<path fill="#004987" d="M451.704,451.593v20.664c0,2.949,0.483,5.106,1.447,6.466c1.438,1.97,3.461,2.955,6.072,2.955
	c2.62,0,4.655-0.985,6.091-2.955c0.963-1.317,1.447-3.472,1.447-6.466v-20.664h5.182v22.104c0,3.617-1.128,6.598-3.381,8.94
	c-2.536,2.607-5.648,3.914-9.338,3.914c-3.695,0-6.798-1.307-9.317-3.914c-2.253-2.342-3.381-5.323-3.381-8.94v-22.104H451.704z"/>
<path fill="#004987" d="M493.942,461.044l5.092,11.675h-10.427L493.942,461.044z M477.043,485.928h5.582l3.824-8.341h14.698
	l3.602,8.341h5.672l-16.39-36.492L477.043,485.928z"/>
<polygon fill="#004987" points="531.398,451.594 523.527,465.313 515.674,451.594 509.717,451.594 520.925,471.094 520.925,485.928 
	526.105,485.928 526.105,471.094 537.357,451.594 "/>
</svg>
